<?xml version="1.0" encoding="UTF-8" standalone="no"?>
<!-- Created with Inkscape (http://www.inkscape.org/) -->

<svg
   width="7"
   height="7"
   viewBox="0 0 1.8520833 1.8520834"
   version="1.1"
   id="svg5"
   inkscape:version="1.2.1 (9c6d41e410, 2022-07-14)"
   sodipodi:docname="favicon.svg"
   xmlns:inkscape="http://www.inkscape.org/namespaces/inkscape"
   xmlns:sodipodi="http://sodipodi.sourceforge.net/DTD/sodipodi-0.dtd"
   xmlns="http://www.w3.org/2000/svg"
   xmlns:svg="http://www.w3.org/2000/svg">
  <sodipodi:namedview
     id="namedview7"
     pagecolor="#505050"
     bordercolor="#eeeeee"
     borderopacity="1"
     inkscape:showpageshadow="0"
     inkscape:pageopacity="0"
     inkscape:pagecheckerboard="0"
     inkscape:deskcolor="#505050"
     inkscape:document-units="mm"
     showgrid="false"
     inkscape:zoom="138.03994"
     inkscape:cx="2.8868456"
     inkscape:cy="2.8542464"
     inkscape:window-width="2493"
     inkscape:window-height="1426"
     inkscape:window-x="0"
     inkscape:window-y="0"
     inkscape:window-maximized="1"
     inkscape:current-layer="layer1" />
  <defs
     id="defs2" />
  <g
     inkscape:label="Layer 1"
     inkscape:groupmode="layer"
     id="layer1">
    <path
       id="path2163"
       style="fill:#818181;fill-opacity:1;stroke:#c0caf5;stroke-width:0;stroke-linecap:round;stroke-linejoin:round;stroke-dasharray:none;stroke-dashoffset:0"
       d="M 0.3968755,0.26458383 V 0.7937505 a 0.26458332,0.26458332 0 0 0 5.1676e-4,0.0144694 0.26458332,0.26458332 0 0 0 0.001034,0.0139526 0.26458332,0.26458332 0 0 0 0.002067,0.0144694 0.26458332,0.26458332 0 0 0 0.002584,0.0139526 0.26458332,0.26458332 0 0 0 0.003617,0.0139526 0.26458332,0.26458332 0 0 0 0.004134,0.0134359 0.26458332,0.26458332 0 0 0 0.004651,0.0139526 0.26458332,0.26458332 0 0 0 0.005684,0.0129191 0.26458332,0.26458332 0 0 0 0.006718,0.0129191 0.26458332,0.26458332 0 0 0 0.006718,0.0124024 0.26458332,0.26458332 0 0 0 0.007751,0.0118856 0.26458332,0.26458332 0 0 0 0.008268,0.0118856 0.26458332,0.26458332 0 0 0 0.009302,0.0108521 0.26458332,0.26458332 0 0 0 0.009302,0.0108521 0.26458332,0.26458332 0 0 0 0.0103353,0.0103353 0.26458332,0.26458332 0 0 0 0.0108521,0.009302 0.26458332,0.26458332 0 0 0 0.0108521,0.009302 0.26458332,0.26458332 0 0 0 0.0118856,0.00827 0.26458332,0.26458332 0 0 0 0.0118856,0.00775 0.26458332,0.26458332 0 0 0 0.0124023,0.00672 0.26458332,0.26458332 0 0 0 0.0129191,0.00672 0.26458332,0.26458332 0 0 0 0.0129191,0.00568 0.26458332,0.26458332 0 0 0 0.0139526,0.00465 0.26458332,0.26458332 0 0 0 0.0134359,0.00413 0.26458332,0.26458332 0 0 0 0.0139526,0.00362 0.26458332,0.26458332 0 0 0 0.0139526,0.00258 0.26458332,0.26458332 0 0 0 0.0144694,0.00207 0.26458332,0.26458332 0 0 0 0.0139526,0.00103 0.26458332,0.26458332 0 0 0 0.0144694,5.168e-4 H 0.92604217 1.1906255 V 1.5875005 H 1.4552088 V 1.0583338 a 0.26458332,0.26458332 0 0 0 -5.167e-4,-0.014469 0.26458332,0.26458332 0 0 0 -0.00103,-0.013953 0.26458332,0.26458332 0 0 0 -0.00207,-0.014469 0.26458332,0.26458332 0 0 0 -0.00258,-0.013953 0.26458332,0.26458332 0 0 0 -0.00362,-0.0139526 0.26458332,0.26458332 0 0 0 -0.00413,-0.0134359 0.26458332,0.26458332 0 0 0 -0.00465,-0.0139526 0.26458332,0.26458332 0 0 0 -0.00568,-0.0129191 0.26458332,0.26458332 0 0 0 -0.00672,-0.0129191 0.26458332,0.26458332 0 0 0 -0.00672,-0.0124023 0.26458332,0.26458332 0 0 0 -0.00775,-0.0118856 0.26458332,0.26458332 0 0 0 -0.00827,-0.0118856 0.26458332,0.26458332 0 0 0 -0.0093,-0.0108521 0.26458332,0.26458332 0 0 0 -0.0093,-0.0108521 0.26458332,0.26458332 0 0 0 -0.010335,-0.0103353 0.26458332,0.26458332 0 0 0 -0.010852,-0.009302 0.26458332,0.26458332 0 0 0 -0.010852,-0.009302 0.26458332,0.26458332 0 0 0 -0.011886,-0.008268 0.26458332,0.26458332 0 0 0 -0.011886,-0.007751 0.26458332,0.26458332 0 0 0 -0.012402,-0.006718 0.26458332,0.26458332 0 0 0 -0.012919,-0.006718 0.26458332,0.26458332 0 0 0 -0.012919,-0.005684 0.26458332,0.26458332 0 0 0 -0.013953,-0.004651 0.26458332,0.26458332 0 0 0 -0.013436,-0.004134 0.26458332,0.26458332 0 0 0 -0.013953,-0.003617 0.26458332,0.26458332 0 0 0 -0.013953,-0.002584 0.26458332,0.26458332 0 0 0 -0.014469,-0.002067 0.26458332,0.26458332 0 0 0 -0.013959,-0.001034 0.26458332,0.26458332 0 0 0 -0.014469,-5.1676e-4 H 0.92604217 0.66145883 V 0.26458383 Z m 0.79375,0 V 0.52916716 0.66145883 A 0.39687499,0.39687499 0 0 1 1.4552088,0.76222787 V 0.52916716 0.26458383 Z M 0.3968755,1.0898565 V 1.3229171 1.5875005 H 0.66145883 V 1.3229171 1.1906255 A 0.39687499,0.39687499 0 0 1 0.3968755,1.0898565 Z" />
  </g>
</svg>
