<?xml version="1.0" encoding="UTF-8" standalone="no"?>
<!-- Created with Inkscape (http://www.inkscape.org/) -->

<svg
   width="15.5"
   height="5"
   viewBox="0 0 4.1010416 1.3229167"
   version="1.1"
   id="svg5"
   inkscape:version="1.2.1 (9c6d41e410, 2022-07-14)"
   sodipodi:docname="logo-light.svg"
   xmlns:inkscape="http://www.inkscape.org/namespaces/inkscape"
   xmlns:sodipodi="http://sodipodi.sourceforge.net/DTD/sodipodi-0.dtd"
   xmlns="http://www.w3.org/2000/svg"
   xmlns:svg="http://www.w3.org/2000/svg">
  <sodipodi:namedview
     id="namedview7"
     pagecolor="#505050"
     bordercolor="#eeeeee"
     borderopacity="1"
     inkscape:showpageshadow="0"
     inkscape:pageopacity="0"
     inkscape:pagecheckerboard="0"
     inkscape:deskcolor="#505050"
     inkscape:document-units="mm"
     showgrid="false"
     inkscape:zoom="69.01997"
     inkscape:cx="5.223126"
     inkscape:cy="4.0133312"
     inkscape:window-width="2493"
     inkscape:window-height="1426"
     inkscape:window-x="0"
     inkscape:window-y="0"
     inkscape:window-maximized="1"
     inkscape:current-layer="layer1" />
  <defs
     id="defs2" />
  <g
     inkscape:label="Layer 1"
     inkscape:groupmode="layer"
     id="layer1">
    <path
       id="path2163"
       style="fill:#34548a;fill-opacity:1;stroke:#c0caf5;stroke-width:0;stroke-linecap:round;stroke-linejoin:round;stroke-dasharray:none;stroke-dashoffset:0"
       d="m 5e-7,5e-7 v 0.52916667 a 0.26458332,0.26458332 0 0 0 5.1676e-4,0.0144694 0.26458332,0.26458332 0 0 0 0.001034,0.0139526 0.26458332,0.26458332 0 0 0 0.002067,0.0144694 0.26458332,0.26458332 0 0 0 0.002584,0.0139526 0.26458332,0.26458332 0 0 0 0.003617,0.0139526 0.26458332,0.26458332 0 0 0 0.004134,0.0134359 0.26458332,0.26458332 0 0 0 0.004651,0.0139526 0.26458332,0.26458332 0 0 0 0.005684,0.0129191 0.26458332,0.26458332 0 0 0 0.006718,0.0129191 0.26458332,0.26458332 0 0 0 0.006718,0.0124024 0.26458332,0.26458332 0 0 0 0.007751,0.0118856 0.26458332,0.26458332 0 0 0 0.008268,0.0118856 0.26458332,0.26458332 0 0 0 0.009302,0.0108521 0.26458332,0.26458332 0 0 0 0.009302,0.0108521 0.26458332,0.26458332 0 0 0 0.0103353,0.0103353 0.26458332,0.26458332 0 0 0 0.0108521,0.009302 0.26458332,0.26458332 0 0 0 0.0108521,0.009302 0.26458332,0.26458332 0 0 0 0.0118856,0.00827 0.26458332,0.26458332 0 0 0 0.0118856,0.00775 0.26458332,0.26458332 0 0 0 0.0124023,0.00672 0.26458332,0.26458332 0 0 0 0.0129191,0.00672 0.26458332,0.26458332 0 0 0 0.0129191,0.00568 0.26458332,0.26458332 0 0 0 0.0139526,0.00465 0.26458332,0.26458332 0 0 0 0.0134359,0.00413 0.26458332,0.26458332 0 0 0 0.0139526,0.00362 0.26458332,0.26458332 0 0 0 0.0139526,0.00258 0.26458332,0.26458332 0 0 0 0.0144694,0.00207 0.26458332,0.26458332 0 0 0 0.0139526,0.00103 0.26458332,0.26458332 0 0 0 0.0144694,5.168e-4 H 0.52916717 0.7937505 V 1.3229171 H 1.0583338 V 0.79375047 a 0.26458332,0.26458332 0 0 0 -5.167e-4,-0.014469 0.26458332,0.26458332 0 0 0 -0.00103,-0.013953 0.26458332,0.26458332 0 0 0 -0.00207,-0.014469 0.26458332,0.26458332 0 0 0 -0.00258,-0.013953 0.26458332,0.26458332 0 0 0 -0.00362,-0.0139526 0.26458332,0.26458332 0 0 0 -0.00413,-0.0134359 0.26458332,0.26458332 0 0 0 -0.00465,-0.0139526 0.26458332,0.26458332 0 0 0 -0.00568,-0.0129191 0.26458332,0.26458332 0 0 0 -0.00672,-0.0129191 0.26458332,0.26458332 0 0 0 -0.00672,-0.0124023 0.26458332,0.26458332 0 0 0 -0.00775,-0.0118856 0.26458332,0.26458332 0 0 0 -0.00827,-0.0118856 0.26458332,0.26458332 0 0 0 -0.0093,-0.0108521 0.26458332,0.26458332 0 0 0 -0.0093,-0.0108521 0.26458332,0.26458332 0 0 0 -0.010335,-0.0103353 0.26458332,0.26458332 0 0 0 -0.010852,-0.009302 0.26458332,0.26458332 0 0 0 -0.010852,-0.009302 0.26458332,0.26458332 0 0 0 -0.011886,-0.008268 0.26458332,0.26458332 0 0 0 -0.011886,-0.007751 0.26458332,0.26458332 0 0 0 -0.012402,-0.006718 0.26458332,0.26458332 0 0 0 -0.012919,-0.006718 0.26458332,0.26458332 0 0 0 -0.012919,-0.005684 0.26458332,0.26458332 0 0 0 -0.013953,-0.004651 0.26458332,0.26458332 0 0 0 -0.013436,-0.004134 0.26458332,0.26458332 0 0 0 -0.013953,-0.003617 0.26458332,0.26458332 0 0 0 -0.013953,-0.002584 0.26458332,0.26458332 0 0 0 -0.014469,-0.002067 0.26458332,0.26458332 0 0 0 -0.013959,-0.001034 0.26458332,0.26458332 0 0 0 -0.014469,-5.1676e-4 H 0.52916717 0.26458383 V 5e-7 Z m 0.79375,0 V 0.26458383 0.3968755 A 0.39687499,0.39687499 0 0 1 1.0583338,0.49764454 V 0.26458383 5e-7 Z M 5e-7,0.82527317 V 1.0583337 1.3229171 H 0.26458383 V 1.0583337 0.92604217 A 0.39687499,0.39687499 0 0 1 5e-7,0.82527317 Z" />
    <path
       id="path931"
       style="fill:#34548a;stroke:#c0caf5;stroke-width:0;stroke-linecap:round;stroke-linejoin:round;stroke-dasharray:none;fill-opacity:1"
       d="M 1.7197921,0.26458333 A 0.52916664,0.52916664 0 0 0 1.1906255,0.79375 0.52916664,0.52916664 0 0 0 1.7197921,1.3229167 0.52916664,0.52916664 0 0 0 2.0939295,1.1678874 L 1.9068608,0.98081868 a 0.26458332,0.26458332 0 0 1 -0.1870687,0.0775146 0.26458332,0.26458332 0 0 1 -0.068213,-0.0093 L 1.8133265,0.88728434 1.9750737,0.72553711 2.1755783,0.52503255 A 0.52916664,0.52916664 0 0 0 1.7197921,0.26458333 Z m 0,0.26458334 a 0.26458332,0.26458332 0 0 1 0.068213,0.009302 L 1.4645106,0.86196289 A 0.26458332,0.26458332 0 0 1 1.4552088,0.79375 0.26458332,0.26458332 0 0 1 1.7197921,0.52916667 Z" />
    <path
       id="rect1158"
       style="fill:#34548a;stroke:#c0caf5;stroke-width:0;stroke-linecap:round;stroke-linejoin:round;stroke-dasharray:none;fill-opacity:1"
       d="m 2.9031825,0 a 0.2645829,0.26458284 0 0 0 -0.00723,5.1676432e-4 0.2645829,0.26458284 0 0 0 -0.013953,0.001033526 0.2645829,0.26458284 0 0 0 -0.014469,0.00206706 0.2645829,0.26458284 0 0 0 -0.013953,0.00258382 0.2645829,0.26458284 0 0 0 -0.013953,0.00361735 0.2645829,0.26458284 0 0 0 -0.013436,0.00413412 0.2645829,0.26458284 0 0 0 -0.013953,0.0046509 0.2645829,0.26458284 0 0 0 -0.012919,0.0056844 0.2645829,0.26458284 0 0 0 -0.012919,0.0067179 0.2645829,0.26458284 0 0 0 -0.012402,0.0067179 0.2645829,0.26458284 0 0 0 -0.011886,0.0077515 0.2645829,0.26458284 0 0 0 -0.011885,0.0082682 0.2645829,0.26458284 0 0 0 -0.010852,0.0093018 0.2645829,0.26458284 0 0 0 -0.010852,0.0093018 0.2645829,0.26458284 0 0 0 -0.010335,0.01033528 0.2645829,0.26458284 0 0 0 -0.0093,0.01085205 0.2645829,0.26458284 0 0 0 -0.0093,0.01085205 0.2645829,0.26458284 0 0 0 -0.00827,0.0118856 0.2645829,0.26458284 0 0 0 -0.00775,0.0118856 0.2645829,0.26458284 0 0 0 -0.00672,0.0124023 0.2645829,0.26458284 0 0 0 -0.00672,0.0129191 0.2645829,0.26458284 0 0 0 -0.00568,0.0129191 0.2645829,0.26458284 0 0 0 -0.00465,0.0139526 0.2645829,0.26458284 0 0 0 -0.00413,0.0134359 0.2645829,0.26458284 0 0 0 -0.00362,0.0139526 0.2645829,0.26458284 0 0 0 -0.00258,0.0139526 0.2645829,0.26458284 0 0 0 -0.00207,0.0144694 0.2645829,0.26458284 0 0 0 -0.00103,0.0139526 0.2645829,0.26458284 0 0 0 -5.167e-4,0.0144694 V 0.52916667 H 2.3812505 V 0.79375 H 2.6458339 V 1.3229167 H 2.9104172 V 0.79375 H 3.1750005 V 0.52916667 H 2.9104172 V 0.26458333 H 3.1750005 V 0 H 2.9104172 a 0.2645829,0.26458284 0 0 0 -0.00723,0 z" />
    <path
       id="path1184"
       style="fill:#34548a;stroke:#c0caf5;stroke-width:0;stroke-linecap:round;stroke-linejoin:round;stroke-dasharray:none;fill-opacity:1"
       d="m 3.8292242,0 a 0.2645829,0.26458284 0 0 0 -0.00723,5.1676432e-4 0.2645829,0.26458284 0 0 0 -0.013953,0.001033526 0.2645829,0.26458284 0 0 0 -0.014469,0.00206706 0.2645829,0.26458284 0 0 0 -0.013953,0.00258382 0.2645829,0.26458284 0 0 0 -0.013953,0.00361735 0.2645829,0.26458284 0 0 0 -0.013436,0.00413412 0.2645829,0.26458284 0 0 0 -0.013953,0.0046509 0.2645829,0.26458284 0 0 0 -0.012919,0.0056844 0.2645829,0.26458284 0 0 0 -0.012919,0.0067179 0.2645829,0.26458284 0 0 0 -0.012402,0.0067179 0.2645829,0.26458284 0 0 0 -0.011886,0.0077515 0.2645829,0.26458284 0 0 0 -0.011885,0.0082682 0.2645829,0.26458284 0 0 0 -0.010852,0.0093018 0.2645829,0.26458284 0 0 0 -0.010852,0.0093018 0.2645829,0.26458284 0 0 0 -0.010335,0.01033528 0.2645829,0.26458284 0 0 0 -0.0093,0.01085205 0.2645829,0.26458284 0 0 0 -0.0093,0.01085205 0.2645829,0.26458284 0 0 0 -0.00827,0.0118856 0.2645829,0.26458284 0 0 0 -0.00775,0.0118856 0.2645829,0.26458284 0 0 0 -0.00672,0.0124023 0.2645829,0.26458284 0 0 0 -0.00672,0.0129191 0.2645829,0.26458284 0 0 0 -0.00568,0.0129191 0.2645829,0.26458284 0 0 0 -0.00465,0.0139526 0.2645829,0.26458284 0 0 0 -0.00413,0.0134359 0.2645829,0.26458284 0 0 0 -0.00362,0.0139526 0.2645829,0.26458284 0 0 0 -0.00258,0.0139526 0.2645829,0.26458284 0 0 0 -0.00207,0.0144694 0.2645829,0.26458284 0 0 0 -0.00103,0.0139526 0.2645829,0.26458284 0 0 0 -5.167e-4,0.0144694 V 0.52916667 H 3.3072922 V 0.79375 H 3.5718756 V 1.3229167 H 3.8364589 V 0.79375 H 4.1010422 V 0.52916667 H 3.8364589 V 0.26458333 H 4.1010422 V 0 H 3.8364589 a 0.2645829,0.26458284 0 0 0 -0.00723,0 z" />
  </g>
</svg>
