<?xml version="1.0" encoding="UTF-8" standalone="no"?>
<!-- Created with Inkscape (http://www.inkscape.org/) -->

<svg
   width="124"
   height="40"
   viewBox="0 0 124 40"
   version="1.1"
   id="svg5"
   inkscape:version="1.2.1 (9c6d41e410, 2022-07-14)"
   sodipodi:docname="logo.svg"
   xmlns:inkscape="http://www.inkscape.org/namespaces/inkscape"
   xmlns:sodipodi="http://sodipodi.sourceforge.net/DTD/sodipodi-0.dtd"
   xmlns="http://www.w3.org/2000/svg"
   xmlns:svg="http://www.w3.org/2000/svg">
  <sodipodi:namedview
     id="namedview7"
     pagecolor="#505050"
     bordercolor="#eeeeee"
     borderopacity="1"
     inkscape:showpageshadow="0"
     inkscape:pageopacity="0"
     inkscape:pagecheckerboard="0"
     inkscape:deskcolor="#505050"
     inkscape:document-units="mm"
     showgrid="false"
     inkscape:zoom="6.1005611"
     inkscape:cx="43.192748"
     inkscape:cy="49.831482"
     inkscape:window-width="2493"
     inkscape:window-height="1426"
     inkscape:window-x="0"
     inkscape:window-y="0"
     inkscape:window-maximized="1"
     inkscape:current-layer="layer1" />
  <defs
     id="defs2" />
  <g
     inkscape:label="Layer 1"
     inkscape:groupmode="layer"
     id="layer1">
    <path
       id="path2163"
       style="fill:#ffffff;fill-opacity:1;stroke:#ffffff;stroke-width:0;stroke-linecap:round;stroke-linejoin:round;stroke-dasharray:none;stroke-dashoffset:0;stroke-opacity:1"
       d="M 5.1216393e-6,7.4169495e-4 V 16.00043 A 7.9999991,7.9998437 0 0 0 0.01562998,16.437922 a 7.9999991,7.9998437 0 0 0 0.03126427,0.421864 7.9999991,7.9998437 0 0 0 0.06249825,0.437492 7.9999991,7.9998437 0 0 0 0.0781303,0.421863 7.9999991,7.9998437 0 0 0 0.10936441,0.421864 7.9999991,7.9998437 0 0 0 0.12499657,0.406241 7.9999991,7.9998437 0 0 0 0.1406286,0.421863 7.9999991,7.9998437 0 0 0 0.17186273,0.39062 7.9999991,7.9998437 0 0 0 0.20312699,0.390619 7.9999991,7.9998437 0 0 0 0.2031269,0.37499 7.9999991,7.9998437 0 0 0 0.2343607,0.359369 7.9999991,7.9998437 0 0 0 0.2499934,0.359368 7.9999991,7.9998437 0 0 0 0.2812569,0.328118 7.9999991,7.9998437 0 0 0 0.2812577,0.328117 7.9999991,7.9998437 0 0 0 0.3125001,0.312496 7.9999991,7.9998437 0 0 0 0.3281268,0.281251 7.9999991,7.9998437 0 0 0 0.3281267,0.281252 7.9999991,7.9998437 0 0 0 0.3593753,0.250048 7.9999991,7.9998437 0 0 0 0.3593753,0.234324 7.9999991,7.9998437 0 0 0 0.3749986,0.203182 7.9999991,7.9998437 0 0 0 0.3906246,0.203183 7.9999991,7.9998437 0 0 0 0.3906246,0.171739 7.9999991,7.9998437 0 0 0 0.4218739,0.140598 7.9999991,7.9998437 0 0 0 0.4062506,0.124873 7.9999991,7.9998437 0 0 0 0.4218738,0.10945 7.9999991,7.9998437 0 0 0 0.4218739,0.07801 7.9999991,7.9998437 0 0 0 0.4374999,0.06256 7.9999991,7.9998437 0 0 0 0.4218765,0.03118 7.9999991,7.9998437 0 0 0 0.4375019,0.01566 h 8.0000078 7.999999 v 15.999857 h 7.999998 V 24.000286 a 7.9999991,7.9998437 0 0 0 -0.01562,-0.437479 7.9999991,7.9998437 0 0 0 -0.03117,-0.421877 7.9999991,7.9998437 0 0 0 -0.06261,-0.437478 7.9999991,7.9998437 0 0 0 -0.07801,-0.421878 7.9999991,7.9998437 0 0 0 -0.109452,-0.421863 7.9999991,7.9998437 0 0 0 -0.124874,-0.406241 7.9999991,7.9998437 0 0 0 -0.1406,-0.421864 7.9999991,7.9998437 0 0 0 -0.171743,-0.390619 7.9999991,7.9998437 0 0 0 -0.20319,-0.390619 7.9999991,7.9998437 0 0 0 -0.20319,-0.374991 A 7.9999991,7.9998437 0 0 0 30.625214,19.516009 7.9999991,7.9998437 0 0 0 30.375161,19.15664 7.9999991,7.9998437 0 0 0 30.093967,18.828523 7.9999991,7.9998437 0 0 0 29.812772,18.500406 7.9999991,7.9998437 0 0 0 29.50028,18.18791 7.9999991,7.9998437 0 0 0 29.172155,17.906659 7.9999991,7.9998437 0 0 0 28.84403,17.625407 7.9999991,7.9998437 0 0 0 28.484641,17.375421 7.9999991,7.9998437 0 0 0 28.125253,17.141063 7.9999991,7.9998437 0 0 0 27.750265,16.937942 7.9999991,7.9998437 0 0 0 27.359646,16.734821 7.9999991,7.9998437 0 0 0 26.969027,16.562965 7.9999991,7.9998437 0 0 0 26.547144,16.42234 a 7.9999991,7.9998437 0 0 0 -0.406251,-0.124997 7.9999991,7.9998437 0 0 0 -0.421884,-0.109361 7.9999991,7.9998437 0 0 0 -0.421883,-0.07813 7.9999991,7.9998437 0 0 0 -0.437489,-0.06249 7.9999991,7.9998437 0 0 0 -0.422066,-0.03124 7.9999991,7.9998437 0 0 0 -0.437489,-0.01566 H 16.000004 8.0000041 V 7.4169495e-4 Z m 23.9999978783607,0 V 8.0005857 12.000508 a 11.999998,11.999766 0 0 1 7.999998,3.046815 V 8.0005857 7.4169495e-4 Z M 5.1216393e-6,24.953382 v 7.046731 7.999847 H 8.0000041 V 32.000113 28.000196 A 11.999998,11.999766 0 0 1 5.1216393e-6,24.953382 Z" />
    <path
       id="path931"
       style="fill:#ffffff;fill-opacity:1;stroke:#ffffff;stroke-width:0;stroke-linecap:round;stroke-linejoin:round;stroke-dasharray:none;stroke-opacity:1"
       d="M 51.999999,8.0005706 A 15.999998,15.999687 0 0 0 36.000002,24.000259 15.999998,15.999687 0 0 0 51.999999,39.999948 15.999998,15.999687 0 0 0 63.312498,35.312539 l -5.65625,-5.656141 a 7.9999991,7.9998437 0 0 1 -5.656249,2.343703 7.9999991,7.9998437 0 0 1 -2.062504,-0.281191 l 4.89063,-4.890582 4.890623,-4.890529 6.062501,-6.062382 A 15.999998,15.999687 0 0 0 51.999999,8.0005706 Z m 0,7.9998444 a 7.9999991,7.9998437 0 0 1 2.062503,0.281251 l -9.781251,9.781052 A 7.9999991,7.9998437 0 0 1 44,24.000259 7.9999991,7.9998437 0 0 1 51.999999,16.000415 Z" />
    <path
       id="rect1158"
       style="fill:#ffffff;fill-opacity:1;stroke:#ffffff;stroke-width:0;stroke-linecap:round;stroke-linejoin:round;stroke-dasharray:none;stroke-opacity:1"
       d="M 87.78125,7.2657714e-4 A 7.9999862,7.9998292 0 0 0 87.562658,0.01635127 7.9999862,7.9998292 0 0 0 87.140755,0.04760061 7.9999862,7.9998292 0 0 0 86.7033,0.11009943 a 7.9999862,7.9998292 0 0 0 -0.421904,0.0781235 7.9999862,7.9998292 0 0 0 -0.421903,0.10937285 7.9999862,7.9998292 0 0 0 -0.406285,0.12499771 7.9999862,7.9998292 0 0 0 -0.421904,0.14062288 7.9999862,7.9998292 0 0 0 -0.390599,0.17187147 7.9999862,7.9998292 0 0 0 -0.390599,0.20311998 7.9999862,7.9998292 0 0 0 -0.37498,0.20311998 7.9999862,7.9998292 0 0 0 -0.359362,0.2343716 7.9999862,7.9998292 0 0 0 -0.359362,0.2499943 7.9999862,7.9998292 0 0 0 -0.328124,0.281246 7.9999862,7.9998292 0 0 0 -0.328125,0.2812459 7.9999862,7.9998292 0 0 0 -0.312506,0.3124934 7.9999862,7.9998292 0 0 0 -0.281201,0.3281188 7.9999862,7.9998292 0 0 0 -0.281202,0.3281189 7.9999862,7.9998292 0 0 0 -0.250032,0.3593684 7.9999862,7.9998292 0 0 0 -0.234346,0.3593684 7.9999862,7.9998292 0 0 0 -0.203176,0.3749911 7.9999862,7.9998292 0 0 0 -0.203177,0.3906172 7.9999862,7.9998292 0 0 0 -0.171735,0.3906173 7.9999862,7.9998292 0 0 0 -0.140635,0.4218654 7.9999862,7.9998292 0 0 0 -0.12488,0.4062427 7.9999862,7.9998292 0 0 0 -0.109466,0.4218654 7.9999862,7.9998292 0 0 0 -0.07802,0.4218654 7.9999862,7.9998292 0 0 0 -0.06248,0.4374916 7.9999862,7.9998292 0 0 0 -0.03124,0.4218634 7.9999862,7.9998292 0 0 0 -0.01562,0.4374922 v 7.9998478 h -8.000451 v 7.999844 h 8.000003 V 39.999946 H 87.99999 V 24.000259 h 8.000003 V 16.000415 H 87.999997 V 8.0005706 H 96 V 7.2657714e-4 h -8.000003 a 7.9999862,7.9998292 0 0 0 -0.218591,0 z" />
    <path
       id="path1184"
       style="fill:#ffffff;fill-opacity:1;stroke:#ffffff;stroke-width:0;stroke-linecap:round;stroke-linejoin:round;stroke-dasharray:none;stroke-opacity:1"
       d="m 115.78125,7.2657714e-4 a 7.9999862,7.9998292 0 0 0 -0.21859,0.0156246929 7.9999862,7.9998292 0 0 0 -0.42191,0.03124934 7.9999862,7.9998292 0 0 0 -0.43745,0.06249882 7.9999862,7.9998292 0 0 0 -0.4219,0.0781235 7.9999862,7.9998292 0 0 0 -0.42191,0.10937285 7.9999862,7.9998292 0 0 0 -0.40628,0.12499771 7.9999862,7.9998292 0 0 0 -0.42191,0.14062288 7.9999862,7.9998292 0 0 0 -0.3906,0.17187147 7.9999862,7.9998292 0 0 0 -0.3906,0.20311998 7.9999862,7.9998292 0 0 0 -0.37498,0.20311998 7.9999862,7.9998292 0 0 0 -0.35936,0.2343716 7.9999862,7.9998292 0 0 0 -0.35936,0.2499943 7.9999862,7.9998292 0 0 0 -0.32812,0.281246 7.9999862,7.9998292 0 0 0 -0.32813,0.2812459 7.9999862,7.9998292 0 0 0 -0.3125,0.3124934 7.9999862,7.9998292 0 0 0 -0.28121,0.3281188 7.9999862,7.9998292 0 0 0 -0.2812,0.3281189 7.9999862,7.9998292 0 0 0 -0.25003,0.3593684 7.9999862,7.9998292 0 0 0 -0.23434,0.3593684 7.9999862,7.9998292 0 0 0 -0.20318,0.3749911 7.9999862,7.9998292 0 0 0 -0.20318,0.3906172 7.9999862,7.9998292 0 0 0 -0.17173,0.3906173 7.9999862,7.9998292 0 0 0 -0.14064,0.4218654 7.9999862,7.9998292 0 0 0 -0.12488,0.4062427 7.9999862,7.9998292 0 0 0 -0.10946,0.4218654 7.9999862,7.9998292 0 0 0 -0.078,0.4218654 7.9999862,7.9998292 0 0 0 -0.0625,0.4374916 7.9999862,7.9998292 0 0 0 -0.0312,0.4218634 7.9999862,7.9998292 0 0 0 -0.0156,0.4374922 v 7.9998478 h -8.00045 v 7.999844 h 8 v 15.999689 h 8 V 24.000259 h 8 V 16.000415 H 116 V 8.0005706 h 8 V 7.2657714e-4 h -8 a 7.9999862,7.9998292 0 0 0 -0.2186,0 z" />
  </g>
</svg>
