<?xml version="1.0" encoding="UTF-8" standalone="no"?>
<!-- Created with Inkscape (http://www.inkscape.org/) -->

<svg
   width="5"
   height="5"
   viewBox="0 0 1.3229166 1.3229167"
   version="1.1"
   id="svg5"
   inkscape:version="1.2.1 (9c6d41e410, 2022-07-14)"
   sodipodi:docname="toggle-light.svg"
   xmlns:inkscape="http://www.inkscape.org/namespaces/inkscape"
   xmlns:sodipodi="http://sodipodi.sourceforge.net/DTD/sodipodi-0.dtd"
   xmlns="http://www.w3.org/2000/svg"
   xmlns:svg="http://www.w3.org/2000/svg">
  <sodipodi:namedview
     id="namedview7"
     pagecolor="#505050"
     bordercolor="#eeeeee"
     borderopacity="1"
     inkscape:showpageshadow="0"
     inkscape:pageopacity="0"
     inkscape:pagecheckerboard="0"
     inkscape:deskcolor="#505050"
     inkscape:document-units="mm"
     showgrid="false"
     inkscape:zoom="69.01997"
     inkscape:cx="4.1654611"
     inkscape:cy="4.0133312"
     inkscape:window-width="2493"
     inkscape:window-height="1426"
     inkscape:window-x="0"
     inkscape:window-y="0"
     inkscape:window-maximized="1"
     inkscape:current-layer="layer1" />
  <defs
     id="defs2" />
  <g
     inkscape:label="Layer 1"
     inkscape:groupmode="layer"
     id="layer1">
    <path
       id="rect1457"
       style="fill:#343b58;fill-opacity:1;stroke:#c0caf5;stroke-width:0;stroke-linecap:round;stroke-linejoin:round;stroke-dasharray:none"
       d="M 0.66145833 0.10025228 L 0.49712728 0.26458333 L 0.26458333 0.26458333 L 0.26458333 0.49712728 L 0.10025228 0.66145833 L 0.26458333 0.82578939 L 0.26458333 1.0583333 L 0.49712728 1.0583333 L 0.66145833 1.2226644 L 0.82578939 1.0583333 L 1.0583333 1.0583333 L 1.0583333 0.82578939 L 1.2226644 0.66145833 L 1.0583333 0.49712728 L 1.0583333 0.26458333 L 0.82578939 0.26458333 L 0.66145833 0.10025228 z M 0.66145833 0.396875 A 0.26458332 0.26458332 0 0 1 0.92604167 0.66145833 A 0.26458332 0.26458332 0 0 1 0.66145833 0.92604167 A 0.26458332 0.26458332 0 0 1 0.396875 0.66145833 A 0.26458332 0.26458332 0 0 1 0.66145833 0.396875 z " />
  </g>
</svg>
